<?xml version="1.0" encoding="UTF-8" standalone="no"?>
<!-- Created with Inkscape (http://www.inkscape.org/) -->

<svg
   version="1.1"
   id="svg1"
   width="604.32001"
   height="530.37335"
   viewBox="0 0 604.32001 530.37335"
   sodipodi:docname="3053929.eps"
   xmlns:inkscape="http://www.inkscape.org/namespaces/inkscape"
   xmlns:sodipodi="http://sodipodi.sourceforge.net/DTD/sodipodi-0.dtd"
   xmlns="http://www.w3.org/2000/svg"
   xmlns:svg="http://www.w3.org/2000/svg">
  <defs
     id="defs1">
    <clipPath
       clipPathUnits="userSpaceOnUse"
       id="clipPath23">
      <path
         d="M 40.9727,1353.16 2134.72,3484.27 v -266.7 l -94.98,-223.53 h -25.57 v -60.18 L 1342.74,1353.6 40.9727,1353.16"
         transform="translate(0,-2.5e-5)"
         id="path23" />
    </clipPath>
  </defs>
  <sodipodi:namedview
     id="namedview1"
     pagecolor="#ffffff"
     bordercolor="#000000"
     borderopacity="0.25"
     inkscape:showpageshadow="2"
     inkscape:pageopacity="0.0"
     inkscape:pagecheckerboard="0"
     inkscape:deskcolor="#d1d1d1" />
  <g
     id="g1"
     inkscape:groupmode="layer"
     inkscape:label="1">
    <g
       id="group-R5">
      <path
         id="path2"
         d="m 418.008,3592.13 4.043,-7.31 c 4.535,-8.22 11.351,-14.97 19.644,-19.46 l 7.387,-4.01 -7.387,-3.99 c -8.293,-4.5 -15.109,-11.25 -19.644,-19.47 l -4.043,-7.31 -4.039,7.31 c -4.535,8.22 -11.352,14.97 -19.645,19.47 l -7.386,3.99 7.386,4.01 c 8.293,4.49 15.11,11.24 19.645,19.46 l 4.039,7.31"
         style="fill:#e7e8e5;fill-opacity:1;fill-rule:nonzero;stroke:none"
         transform="matrix(0.13333333,0,0,-0.13333333,0,530.37333)" />
      <path
         id="path3"
         d="m 1332.13,3257.48 7.66,-13.87 c 8.6,-15.56 21.52,-28.36 37.24,-36.88 l 14,-7.59 -14,-7.58 c -15.72,-8.51 -28.64,-21.31 -37.24,-36.88 l -7.66,-13.87 -7.65,13.87 c -8.6,15.57 -21.53,28.37 -37.24,36.88 l -14,7.58 14,7.59 c 15.71,8.52 28.64,21.32 37.24,36.88 l 7.65,13.87"
         style="fill:#e7e8e5;fill-opacity:1;fill-rule:nonzero;stroke:none"
         transform="matrix(0.13333333,0,0,-0.13333333,0,530.37333)" />
      <path
         id="path4"
         d="m 4313.57,1987.45 7.66,-13.87 c 8.59,-15.57 21.52,-28.37 37.24,-36.88 l 14,-7.58 -14,-7.59 c -15.72,-8.52 -28.65,-21.31 -37.24,-36.89 l -7.66,-13.86 -7.65,13.86 c -8.6,15.58 -21.53,28.37 -37.24,36.89 l -14,7.59 14,7.58 c 15.71,8.51 28.64,21.31 37.24,36.88 l 7.65,13.87"
         style="fill:#e7e8e5;fill-opacity:1;fill-rule:nonzero;stroke:none"
         transform="matrix(0.13333333,0,0,-0.13333333,0,530.37333)" />
      <path
         id="path5"
         d="m 1099.44,3854.9 3.44,-6.22 c 3.86,-7 9.66,-12.74 16.71,-16.57 l 6.29,-3.4 -6.29,-3.41 c -7.05,-3.82 -12.85,-9.57 -16.71,-16.56 l -3.44,-6.23 -3.44,6.23 c -3.86,6.99 -9.67,12.74 -16.72,16.56 l -6.29,3.41 6.29,3.4 c 7.05,3.83 12.86,9.57 16.72,16.57 l 3.44,6.22"
         style="fill:#e7e8e5;fill-opacity:1;fill-rule:nonzero;stroke:none"
         transform="matrix(0.13333333,0,0,-0.13333333,0,530.37333)" />
      <path
         id="path6"
         d="m 3701.6,2289.25 h 489.51 c 0,0 -43.29,78.78 -169.28,67.31 -120.35,-10.95 -126.47,38.75 -187.65,44.87 -61.19,6.12 -112.19,-40.79 -132.58,-112.18"
         style="fill:#e7e8e5;fill-opacity:1;fill-rule:nonzero;stroke:none"
         transform="matrix(0.13333333,0,0,-0.13333333,0,530.37333)" />
      <path
         id="path7"
         d="m 3095.55,3451.21 h 956.64 c 0,0 -84.6,153.95 -330.84,131.54 -235.18,-21.4 -247.13,75.74 -366.71,87.7 -119.58,11.95 -219.23,-79.73 -259.09,-219.24"
         style="fill:#e7e8e5;fill-opacity:1;fill-rule:nonzero;stroke:none"
         transform="matrix(0.13333333,0,0,-0.13333333,0,530.37333)" />
      <path
         id="path8"
         d="m 386.938,3131.13 h 548.75 c 0,0 -48.524,88.3 -189.774,75.45 -134.902,-12.27 -141.766,43.44 -210.359,50.31 -68.594,6.85 -125.754,-45.74 -148.617,-125.76"
         style="fill:#e7e8e5;fill-opacity:1;fill-rule:nonzero;stroke:none"
         transform="matrix(0.13333333,0,0,-0.13333333,0,530.37333)" />
      <path
         id="path9"
         d="m 4196.03,2774.53 c 0.29,-0.92 -12.72,-4.28 -31.85,-13.81 -19.07,-9.42 -44.09,-26.04 -64.98,-50.99 l -1.95,-2.3 -2.44,-2.87 -1.99,3.13 c -17.07,26.81 -41.02,44.23 -59.45,53.34 -18.56,9.3 -31.42,11.7 -31.16,12.67 0.07,0.32 3.32,0.05 9.09,-1.2 5.76,-1.23 14,-3.71 23.71,-8.03 19.33,-8.43 44.62,-25.96 62.42,-53.85 l -4.42,0.26 2,2.37 c 21.51,25.69 47.66,42.27 67.51,50.96 9.96,4.41 18.35,7.15 24.22,8.67 5.89,1.51 9.21,1.99 9.29,1.65"
         style="fill:#17282f;fill-opacity:1;fill-rule:nonzero;stroke:none"
         transform="matrix(0.13333333,0,0,-0.13333333,0,530.37333)" />
      <path
         id="path10"
         d="m 414.18,2863.43 c 0.211,-0.71 -9.746,-3.28 -24.407,-10.58 -14.601,-7.21 -33.769,-19.95 -49.765,-39.05 l -1.492,-1.76 -1.868,-2.2 -1.523,2.39 c -13.074,20.54 -31.426,33.88 -45.535,40.86 -14.211,7.13 -24.059,8.96 -23.863,9.7 0.05,0.25 2.539,0.04 6.957,-0.92 4.421,-0.95 10.73,-2.84 18.164,-6.15 14.797,-6.45 34.175,-19.88 47.808,-41.24 l -3.386,0.2 1.531,1.81 c 16.476,19.68 36.5,32.38 51.711,39.03 7.621,3.39 14.047,5.48 18.547,6.64 4.507,1.16 7.058,1.53 7.121,1.27"
         style="fill:#17282f;fill-opacity:1;fill-rule:nonzero;stroke:none"
         transform="matrix(0.13333333,0,0,-0.13333333,0,530.37333)" />
      <path
         id="path11"
         d="m 861.41,2615.59 c 0.274,-0.93 -12.73,-4.28 -31.863,-13.82 -19.07,-9.41 -44.094,-26.04 -64.981,-50.98 l -1.949,-2.3 -2.437,-2.87 -1.992,3.13 c -17.071,26.81 -41.024,44.23 -59.454,53.33 -18.55,9.31 -31.41,11.7 -31.152,12.68 0.063,0.32 3.316,0.05 9.082,-1.2 5.774,-1.24 14.008,-3.72 23.715,-8.03 19.324,-8.43 44.621,-25.97 62.422,-53.85 l -4.422,0.25 2,2.37 c 21.512,25.69 47.652,42.28 67.512,50.97 9.957,4.41 18.343,7.14 24.218,8.66 5.883,1.51 9.215,1.99 9.301,1.66"
         style="fill:#17282f;fill-opacity:1;fill-rule:nonzero;stroke:none"
         transform="matrix(0.13333333,0,0,-0.13333333,0,530.37333)" />
      <path
         id="path12"
         d="m 2788.46,3977.66 c 0.27,-0.93 -12.74,-4.28 -31.87,-13.82 -19.07,-9.41 -44.09,-26.04 -64.98,-50.98 l -1.95,-2.3 -2.43,-2.87 -2,3.13 c -17.07,26.81 -41.02,44.23 -59.45,53.33 -18.55,9.31 -31.41,11.71 -31.15,12.68 0.07,0.32 3.32,0.05 9.08,-1.2 5.77,-1.24 14,-3.72 23.71,-8.03 19.33,-8.43 44.62,-25.97 62.42,-53.85 l -4.42,0.25 2,2.37 c 21.51,25.69 47.66,42.28 67.51,50.97 9.96,4.41 18.35,7.14 24.23,8.66 5.88,1.51 9.21,1.99 9.3,1.66"
         style="fill:#17282f;fill-opacity:1;fill-rule:nonzero;stroke:none"
         transform="matrix(0.13333333,0,0,-0.13333333,0,530.37333)" />
      <path
         id="path13"
         d="m 3984.78,3103.38 2.01,-3.65 c 2.23,-4.11 5.61,-7.49 9.72,-9.73 l 3.66,-2 -3.66,-2.01 c -4.11,-2.24 -7.49,-5.62 -9.72,-9.72 l -2.01,-3.66 -2,3.66 c -2.24,4.1 -5.62,7.48 -9.73,9.72 l -3.66,2.01 3.66,2 c 4.11,2.24 7.49,5.62 9.73,9.73 l 2,3.65"
         style="fill:#33535f;fill-opacity:1;fill-rule:nonzero;stroke:none"
         transform="matrix(0.13333333,0,0,-0.13333333,0,530.37333)" />
      <path
         id="path14"
         d="m 376.766,2085.7 2,-3.65 c 2.246,-4.11 5.625,-7.49 9.73,-9.73 l 3.656,-2 -3.656,-2 c -4.105,-2.25 -7.484,-5.63 -9.73,-9.74 l -2,-3.65 -2,3.65 c -2.246,4.11 -5.625,7.49 -9.731,9.74 l -3.66,2 3.66,2 c 4.106,2.24 7.485,5.62 9.731,9.73 l 2,3.65"
         style="fill:#33535f;fill-opacity:1;fill-rule:nonzero;stroke:none"
         transform="matrix(0.13333333,0,0,-0.13333333,0,530.37333)" />
      <path
         id="path15"
         d="m 3141.01,2618.78 6.9,-12.63 c 7.75,-14.17 19.41,-25.83 33.59,-33.59 l 12.63,-6.91 -12.63,-6.9 c -14.18,-7.75 -25.84,-19.41 -33.59,-33.59 l -6.9,-12.63 -6.91,12.63 c -7.75,14.18 -19.41,25.84 -33.59,33.59 l -12.63,6.9 12.63,6.91 c 14.18,7.76 25.84,19.42 33.59,33.59 l 6.91,12.63"
         style="fill:#33535f;fill-opacity:1;fill-rule:nonzero;stroke:none"
         transform="matrix(0.13333333,0,0,-0.13333333,0,530.37333)" />
      <path
         id="path16"
         d="m 1561.69,3854.43 6.9,-12.63 c 7.76,-14.18 19.42,-25.84 33.59,-33.59 l 12.63,-6.91 -12.63,-6.91 c -14.17,-7.75 -25.83,-19.41 -33.59,-33.59 l -6.9,-12.62 -6.91,12.62 c -7.75,14.18 -19.41,25.84 -33.59,33.59 l -12.63,6.91 12.63,6.91 c 14.18,7.75 25.84,19.41 33.59,33.59 l 6.91,12.63"
         style="fill:#33535f;fill-opacity:1;fill-rule:nonzero;stroke:none"
         transform="matrix(0.13333333,0,0,-0.13333333,0,530.37333)" />
      <path
         id="path17"
         d="m 2376.34,617.672 c 0,0 -1.43,-1.094 -4.38,-3.012 -3.15,-2 -7.54,-4.781 -13.18,-8.371 -12.14,-6.309 -30.23,-15.859 -55.51,-22.75 -25.15,-7.109 -57.13,-11.48 -94.22,-10.98 -37.1,0.32 -79.2,5.98 -124.59,16.562 -45.48,10.481 -94.02,26.277 -146.76,40.559 -52.61,14.019 -110.11,27.5 -171.43,26.019 -30.56,-0.648 -61.64,-5.738 -92.47,-14.437 -30.87,-8.621 -61.51,-20.442 -92.5,-32.981 -31,-12.551 -62.47,-25.812 -95.4,-36.812 -32.88,-10.918 -67.38,-19.77 -103.18,-22.039 -35.8,-2.211 -71.19,1.871 -105.19,8.73 -34.05,6.871 -66.88,16.422 -99.02,25.75 -64.05,18.82 -126.79,36.512 -188.233,36.371 -61.316,0.16 -118.851,-12.48 -171.5,-26.551 C 766.039,579.441 717.598,563.5 672.77,550.859 627.988,538.082 586.766,528.641 549.988,523.871 c -36.785,-4.621 -68.929,-4.711 -94.875,-1.851 -25.992,2.769 -45.593,8.332 -58.73,12.171 -6.301,2.258 -11.184,4.02 -14.688,5.278 -3.293,1.23 -4.929,1.98 -4.929,1.98 0,0 1.765,-0.41 5.109,-1.469 3.539,-1.152 8.461,-2.73 14.813,-4.781 13.199,-3.5 32.769,-8.699 58.632,-11.14 25.817,-2.528 57.743,-2.137 94.278,2.73 36.543,5.02 77.519,14.66 122.144,27.641 44.672,12.851 93.043,28.992 145.895,43.511 52.761,14.289 110.625,27.207 172.672,27.188 62.281,0.262 125.601,-17.527 189.641,-36.27 63.98,-18.418 131.64,-38.418 202.43,-34.179 35.17,2.23 69.24,10.941 101.87,21.761 32.67,10.891 64.06,24.079 95.11,36.61 31.05,12.531 61.89,24.398 93.09,33.051 31.14,8.738 62.75,13.878 93.72,14.437 62.13,1.359 119.98,-12.418 172.68,-26.648 52.82,-14.5 101.27,-30.5 146.46,-41.153 45.14,-10.75 86.96,-16.636 123.79,-17.238 36.84,-0.781 68.6,3.27 93.63,10.02 25.18,6.531 43.29,15.718 55.53,21.699 5.75,3.39 10.21,6.019 13.41,7.89 3.04,1.77 4.67,2.563 4.67,2.563"
         style="fill:#33535f;fill-opacity:1;fill-rule:nonzero;stroke:none"
         transform="matrix(0.13333333,0,0,-0.13333333,0,530.37333)" />
      <path
         id="path18"
         d="m 3583.35,102 c 0,0 -1.49,-1.141 -4.54,-3.1289 -3.27,-2.082 -7.82,-4.9727 -13.69,-8.6914 -12.6,-6.5703 -31.37,-16.4805 -57.62,-23.6406 -26.09,-7.3907 -59.3,-11.9493 -97.81,-11.4375 -38.52,0.3203 -82.23,6.1797 -129.36,17.1367 -47.22,10.8711 -97.62,27.25 -152.37,42.0627 -54.63,14.527 -114.34,28.508 -178,26.949 -31.73,-0.68 -63.99,-5.988 -96,-15.02 -32.05,-8.968 -63.85,-21.25 -96.03,-34.2808 -32.18,-13.039 -64.83,-26.8203 -99.02,-38.2383 -34.14,-11.3593 -69.96,-20.5625 -107.11,-22.9296 -37.17,-2.3125 -73.92,1.9179 -109.22,9.0273 -35.35,7.1211 -69.44,17.0117 -102.81,26.6914 -66.51,19.5195 -131.65,37.852 -195.44,37.691 C 2080.66,104.34 2020.94,91.1992 1966.28,76.5586 1911.54,61.6992 1861.25,45.1406 1814.71,32 1768.23,18.7188 1725.43,8.89844 1687.25,3.94141 c -38.19,-4.800785 -71.56,-4.921879 -98.5,-1.96094 -26.99,2.87109 -47.33,8.62893 -60.98,12.62113 -6.54,2.3398 -11.61,4.1679 -15.25,5.4687 -3.42,1.2695 -5.12,2.0508 -5.12,2.0508 0,0 1.83,-0.4297 5.31,-1.5313 3.67,-1.1679 8.78,-2.8203 15.38,-4.9414 13.7,-3.6289 34.02,-9.01949 60.87,-11.54684 26.81,-2.62109 59.95,-2.20312 97.89,2.86719 37.93,5.22265 80.47,15.25005 126.8,28.74215 46.37,13.3594 96.58,30.1407 151.45,45.2188 54.77,14.8711 114.84,28.3003 179.26,28.2893 64.66,0.301 130.4,-18.137 196.9,-37.5706 66.43,-19.1093 136.68,-39.8476 210.18,-35.4101 36.51,2.3203 71.87,11.3711 105.75,22.6211 33.92,11.3203 66.5,25.0312 98.74,38.0508 32.22,13.0198 64.24,25.3398 96.63,34.3518 32.33,9.078 65.14,14.418 97.29,15.019 64.5,1.43 124.56,-12.851 179.29,-27.601 54.85,-15.039 105.15,-31.6214 152.07,-42.68 46.87,-11.1484 90.28,-17.2383 128.53,-17.8516 38.24,-0.789 71.22,3.4219 97.21,10.4414 26.13,6.7891 44.92,16.3321 57.64,22.5508 5.97,3.5078 10.59,6.25 13.92,8.1992 3.15,1.8322 4.84,2.6602 4.84,2.6602"
         style="fill:#33535f;fill-opacity:1;fill-rule:nonzero;stroke:none"
         transform="matrix(0.13333333,0,0,-0.13333333,0,530.37333)" />
      <path
         id="path19"
         d="m 3946.36,470.289 c -0.05,-0.09 -0.94,0.223 -2.64,0.902 -1.98,0.829 -4.44,1.848 -7.48,3.129 -6.58,2.731 -16.47,6.309 -29.45,9.95 -26.05,7.011 -65.32,11.949 -113.51,7.781 -48.31,-3.321 -104.43,-17.153 -167.78,-27.86 -31.68,-5.179 -65.48,-9.031 -100.64,-7.671 -35.22,1.199 -71.01,9.441 -106.48,20 -35.57,10.449 -69.7,22.32 -103.56,29.992 -33.71,7.867 -67.44,11.25 -98.85,6.777 -31.44,-4.398 -60.09,-15.098 -86.11,-26.348 -26.05,-11.359 -49.77,-23.332 -71.86,-33.421 -43.86,-20.872 -82.51,-31.668 -109.8,-33.211 -13.62,-0.43 -24.22,-0.239 -31.29,1.14 -3.27,0.481 -5.91,0.871 -8.05,1.18 -1.81,0.301 -2.72,0.492 -2.7,0.59 0.01,0.09 0.96,0.082 2.78,-0.039 2.14,-0.168 4.81,-0.371 8.09,-0.629 7.06,-1.02 17.57,-0.86 31.01,-0.121 26.93,2.179 64.83,13.359 108.33,34.601 21.91,10.27 45.53,22.449 71.68,34.059 26.1,11.488 55.06,22.551 87.24,27.191 32.15,4.719 66.63,1.328 100.72,-6.551 34.26,-7.679 68.51,-19.57 103.91,-29.98 35.33,-10.5 70.54,-18.629 105.16,-19.879 34.62,-1.422 68.08,2.27 99.62,7.301 63.04,10.367 119.57,23.867 168.29,26.726 48.6,3.711 88.28,-1.878 114.36,-9.578 26.13,-7.929 39.01,-16.031 39.01,-16.031"
         style="fill:#17282f;fill-opacity:1;fill-rule:nonzero;stroke:none"
         transform="matrix(0.13333333,0,0,-0.13333333,0,530.37333)" />
      <path
         id="path20"
         d="m 4532.37,1349.45 c 0,-1.45 -1014.68,-2.61 -2266.08,-2.61 C 1014.47,1346.84 0,1348 0,1349.45 c 0,1.43 1014.47,2.6 2266.29,2.6 1251.4,0 2266.08,-1.17 2266.08,-2.6"
         style="fill:#17282f;fill-opacity:1;fill-rule:nonzero;stroke:none"
         transform="matrix(0.13333333,0,0,-0.13333333,0,530.37333)" />
      <path
         id="path21"
         d="M 2134.72,3484.27 40.9727,1353.16 1342.74,1353.6 2134.72,3217.57 v 266.7"
         style="fill:#f03d5f;fill-opacity:1;fill-rule:nonzero;stroke:none"
         transform="matrix(0.13333333,0,0,-0.13333333,0,530.37333)" />
      <path
         id="path22"
         d="m 40.9727,1353.16 h 2093.75 V 3484.27 H 40.9727 Z"
         style="fill:#fde3e9;fill-opacity:1;fill-rule:nonzero;stroke:none"
         transform="matrix(0.13333333,0,0,-0.13333333,0,530.37333)"
         clip-path="url(#clipPath23)" />
      <path
         id="path24"
         d="m 1621.9,982.781 c 195.23,-9.191 394.29,-19 576.01,-73.82 70.78,-21.352 141.5,-49.871 217.66,-47.973 114.28,2.852 212.75,73.844 327.06,71.371 101.34,-2.187 186.68,-61.687 287.25,-71.371 118.74,-11.406 228.28,47.793 346.25,63.09 166.47,21.594 344.72,-54.68 502.87,-6.008 63.06,19.399 -6.06,51.852 -62.49,53.25 0,0 -208.78,2.828 -265.2,43.73 -56.43,40.91 -100.42,45.72 -132.74,55.31 -32.3,9.59 -85.9,-11.58 -85.9,-11.58 l -650.32,-8.46 -488.08,38.93 -435.67,-24.82 -136.7,-81.649"
         style="fill:#e7e8e5;fill-opacity:1;fill-rule:nonzero;stroke:none"
         transform="matrix(0.13333333,0,0,-0.13333333,0,530.37333)" />
      <path
         id="path25"
         d="m 2064.17,2923.77 -50,-1612.08 622.74,7.5 -54.55,1604.57 -518.19,0.01"
         style="fill:#f03d5f;fill-opacity:1;fill-rule:nonzero;stroke:none"
         transform="matrix(0.13333333,0,0,-0.13333333,0,530.37333)" />
      <path
         id="path26"
         d="m 2014.17,2923.77 h 610.777 v 70.2695 H 2014.17 Z"
         style="fill:#33535f;fill-opacity:1;fill-rule:nonzero;stroke:none"
         transform="matrix(0.13333333,0,0,-0.13333333,0,530.37333)" />
      <path
         id="path27"
         d="m 2134.72,2994.04 v 494.86 l 166.49,72.45 h 40.09 l 169.57,-77.08 v -490.23 h -376.15"
         style="fill:#f03d5f;fill-opacity:1;fill-rule:nonzero;stroke:none"
         transform="matrix(0.13333333,0,0,-0.13333333,0,530.37333)" />
      <path
         id="path28"
         d="m 2510.87,3484.27 h -376.15 v -266.7 h 376.15 v 266.7"
         style="fill:#e7e8e5;fill-opacity:1;fill-rule:nonzero;stroke:none"
         transform="matrix(0.13333333,0,0,-0.13333333,0,530.37333)" />
      <path
         id="path29"
         d="m 2301.21,3561.35 v 53.96 h 37 v -53.96 h -30.83"
         style="fill:#f03d5f;fill-opacity:1;fill-rule:nonzero;stroke:none"
         transform="matrix(0.13333333,0,0,-0.13333333,0,530.37333)" />
      <path
         id="path30"
         d="m 2040.27,2153 h -0.11 l 11.43,366.84 h 0.06 L 2040.27,2153"
         style="fill:#ffffff;fill-opacity:1;fill-rule:nonzero;stroke:none"
         transform="matrix(0.13333333,0,0,-0.13333333,0,530.37333)" />
      <path
         id="path31"
         d="m 2434.51,2153 h -394.24 l 11.38,366.84 h 376.44 l 1.82,-104.04 c -13.71,0.05 -28,0.07 -42.68,0.07 0.43,0.43 0.6,0.61 0.6,0.61 0,0 -0.85,-0.85 -1.69,-1.7 -0.85,-0.84 -1.69,-1.69 -1.69,-1.69 0,0 0.01,0.02 0.04,0.05 v -0.02 -0.02 -0.06 -0.1 -0.21 -0.41 -0.82 -1.65 -3.27 -6.51 c 0.01,-4.31 0.01,-8.58 0.02,-12.8 0.03,-8.42 0.05,-16.62 0.08,-24.55 l 0.01,-2.64 2.62,0.01 c 15.44,0.06 30.09,0.17 43.66,0.32 l 3.63,-207.41 m -3.71,212.02 c -12.78,0.15 -26.5,0.26 -40.94,0.32 0.03,7.11 0.05,14.44 0.07,21.93 0,4.22 0.01,8.49 0.02,12.8 v 6.51 3.27 0.56 c 13.76,0 27.16,0.02 40.06,0.07 l 0.79,-45.46"
         style="fill:#f57797;fill-opacity:1;fill-rule:nonzero;stroke:none"
         transform="matrix(0.13333333,0,0,-0.13333333,0,530.37333)" />
      <path
         id="path32"
         d="m 2558.17,2994.04 c -0.17,0 -0.35,2.03 -0.51,5.92 -0.13,4.45 -0.3,10.09 -0.49,17.06 -0.21,15.55 -0.49,36.98 -0.84,63.42 l 1.84,-1.85 c -58.56,-0.54 -143.68,-0.88 -238.23,-0.88 -94.57,0 -179.7,0.34 -238.27,0.88 l 1.85,1.85 c -0.35,-26.44 -0.63,-47.87 -0.83,-63.43 -0.21,-6.96 -0.37,-12.6 -0.49,-17.05 -0.17,-3.89 -0.35,-5.92 -0.53,-5.92 -0.18,0 -0.35,2.03 -0.52,5.92 -0.13,4.45 -0.29,10.09 -0.49,17.05 -0.2,15.56 -0.48,36.99 -0.84,63.43 l -0.02,1.84 1.87,0.01 c 58.57,0.55 143.7,0.89 238.27,0.89 94.55,0 179.67,-0.35 238.23,-0.89 l 1.88,-0.01 -0.02,-1.84 c -0.35,-26.44 -0.64,-47.87 -0.84,-63.42 -0.21,-6.97 -0.36,-12.61 -0.49,-17.06 -0.18,-3.89 -0.34,-5.92 -0.53,-5.92"
         style="fill:#17282f;fill-opacity:1;fill-rule:nonzero;stroke:none"
         transform="matrix(0.13333333,0,0,-0.13333333,0,530.37333)" />
      <path
         id="path33"
         d="m 2422.44,2994.04 c -1.51,0 -2.73,19.34 -2.73,43.2 0,23.87 1.22,43.21 2.73,43.21 1.5,0 2.74,-19.34 2.74,-43.21 0,-23.86 -1.24,-43.2 -2.74,-43.2"
         style="fill:#17282f;fill-opacity:1;fill-rule:nonzero;stroke:none"
         transform="matrix(0.13333333,0,0,-0.13333333,0,530.37333)" />
      <path
         id="path34"
         d="m 2246.47,2994.04 c -1.51,0 -2.74,19.34 -2.74,43.2 0,23.87 1.23,43.21 2.74,43.21 1.51,0 2.73,-19.34 2.73,-43.21 0,-23.86 -1.22,-43.2 -2.73,-43.2"
         style="fill:#17282f;fill-opacity:1;fill-rule:nonzero;stroke:none"
         transform="matrix(0.13333333,0,0,-0.13333333,0,530.37333)" />
      <path
         id="path35"
         d="m 2243.15,3217.57 c -1.5,0 -2.73,59.71 -2.73,133.35 0,73.66 1.23,133.35 2.73,133.35 1.51,0 2.74,-59.69 2.74,-133.35 0,-73.64 -1.23,-133.35 -2.74,-133.35"
         style="fill:#17282f;fill-opacity:1;fill-rule:nonzero;stroke:none"
         transform="matrix(0.13333333,0,0,-0.13333333,0,530.37333)" />
      <path
         id="path36"
         d="m 2390.96,3217.57 c -1.52,0 -2.74,59.71 -2.74,133.35 0,73.66 1.22,133.35 2.74,133.35 1.5,0 2.73,-59.69 2.73,-133.35 0,-73.64 -1.23,-133.35 -2.73,-133.35"
         style="fill:#17282f;fill-opacity:1;fill-rule:nonzero;stroke:none"
         transform="matrix(0.13333333,0,0,-0.13333333,0,530.37333)" />
      <path
         id="path37"
         d="m 2510.87,3350.28 c 0.01,-0.38 -5.26,-0.78 -14.77,-1.19 -10.56,-0.32 -24.1,-0.71 -40.3,-1.2 -34.04,-0.75 -81.06,-1.39 -133,-1.62 -51.96,-0.23 -98.99,0 -133.04,0.7 -33.96,0.58 -55.27,2.1 -55.04,3.31 27.67,0.22 92.76,0.72 188.05,1.45 51.41,0.02 97.91,0.02 132.99,0.03 16.22,-0.22 29.76,-0.4 40.32,-0.55 9.53,-0.24 14.79,-0.55 14.79,-0.93"
         style="fill:#17282f;fill-opacity:1;fill-rule:nonzero;stroke:none"
         transform="matrix(0.13333333,0,0,-0.13333333,0,530.37333)" />
      <path
         id="path38"
         d="m 2017.01,1402.97 h -0.23 l 11.41,366.02 h 0.17 l -11.35,-366.02"
         style="fill:#ffffff;fill-opacity:1;fill-rule:nonzero;stroke:none"
         transform="matrix(0.13333333,0,0,-0.13333333,0,530.37333)" />
      <path
         id="path39"
         d="m 2447.67,1401.2 -430.66,1.77 11.35,366.02 h 412.87 l 2.69,-153.95 c -12.72,0.04 -25.93,0.06 -39.47,0.06 0.43,0.43 0.61,0.61 0.61,0.61 -0.01,0 -0.86,-0.85 -1.7,-1.69 -0.85,-0.85 -1.7,-1.69 -1.69,-1.69 0,0 0.01,0.01 0.04,0.04 v -0.01 -0.03 -0.05 -0.11 -0.2 -0.41 -0.82 -1.65 -3.27 l 0.01,-6.51 c 0,-4.31 0.01,-8.58 0.02,-12.8 0.02,-8.43 0.05,-16.63 0.07,-24.55 l 0.01,-2.65 2.62,0.01 c 14.24,0.05 27.79,0.16 40.45,0.29 l 2.78,-158.41 m -2.86,163.09 c -11.86,0.13 -24.49,0.23 -37.72,0.29 0.02,7.1 0.04,14.43 0.06,21.93 0.01,4.22 0.01,8.49 0.02,12.8 l 0.01,6.51 v 3.27 0.54 c 12.62,0.01 24.94,0.03 36.84,0.06 l 0.79,-45.4"
         style="fill:#f57797;fill-opacity:1;fill-rule:nonzero;stroke:none"
         transform="matrix(0.13333333,0,0,-0.13333333,0,530.37333)" />
      <path
         id="path40"
         d="m 2057.19,2653.76 c 0,0.67 12.34,1.29 32.79,1.77 20.44,0.47 49.01,0.81 81.46,0.92 l -2.69,-2.69 c -0.02,7.39 -0.02,15.1 -0.04,22.96 0.02,7.87 0.02,15.58 0.04,22.98 l 2.69,-2.69 c -32.46,0.11 -61.02,0.45 -81.47,0.93 -20.45,0.47 -32.78,1.09 -32.78,1.77 0,0.67 12.33,1.29 32.78,1.77 20.45,0.47 49.01,0.81 81.47,0.92 l 2.69,0.01 0.01,-2.71 c 0.01,-7.4 0.02,-15.11 0.03,-22.98 -0.01,-7.86 -0.02,-15.57 -0.03,-22.96 l -0.01,-2.71 -2.69,0.01 c -32.45,0.11 -61.02,0.44 -81.46,0.92 -20.45,0.48 -32.79,1.1 -32.79,1.78"
         style="fill:#17282f;fill-opacity:1;fill-rule:nonzero;stroke:none"
         transform="matrix(0.13333333,0,0,-0.13333333,0,530.37333)" />
      <path
         id="path41"
         d="m 2364,3149.86 c -0.26,-0.27 -0.52,3.85 -0.88,11.72 -0.34,7.86 -0.79,19.56 -1.03,34.22 l -0.03,1.89 1.94,0.03 c 28.97,0.51 69.47,0.82 114.24,0.82 -2.43,2.44 3.34,-3.33 2.75,-2.74 v -0.01 -0.02 -0.05 -0.09 -0.19 -0.38 -0.75 -1.51 -2.99 l -0.01,-5.95 c 0,-3.94 -0.01,-7.83 -0.02,-11.68 -0.03,-7.67 -0.06,-15.14 -0.09,-22.32 l -0.01,-2.63 -2.61,0.01 c -33.68,0.16 -62.64,0.72 -82.85,1.23 -9.2,0.28 -16.98,0.53 -23.45,0.73 -5.38,0.23 -8.16,0.44 -7.95,0.66 0.22,0.21 3.43,0.43 9.12,0.65 6.65,0.2 14.62,0.44 24.06,0.73 20.35,0.51 48.51,1.07 81.07,1.23 l -2.62,-2.61 c -0.02,7.18 -0.05,14.65 -0.08,22.32 0,3.85 -0.01,7.74 -0.02,11.68 v 5.95 l -0.01,2.99 v 1.51 0.75 0.38 0.19 0.09 0.05 0.02 0.01 c -0.59,0.6 5.17,-5.16 2.72,-2.72 -44.77,0 -85.27,0.31 -114.24,0.81 l 1.92,1.91 c -0.25,-13.79 -0.7,-25.06 -1.04,-33.07 -0.35,-7.98 -0.61,-12.61 -0.88,-12.87"
         style="fill:#17282f;fill-opacity:1;fill-rule:nonzero;stroke:none"
         transform="matrix(0.13333333,0,0,-0.13333333,0,530.37333)" />
      <path
         id="path42"
         d="m 2296.96,3103.01 c -0.25,-0.26 -0.52,3.86 -0.88,11.73 -0.34,7.85 -0.78,19.56 -1.03,34.22 l -0.03,1.88 1.94,0.04 c 28.98,0.5 69.47,0.82 114.25,0.82 -2.44,2.44 3.33,-3.33 2.74,-2.74 v -0.01 -0.03 -0.04 -0.09 -0.2 -0.37 -0.76 l -0.01,-1.5 v -3 -5.94 c 0,-3.94 -0.01,-7.84 -0.02,-11.69 -0.03,-7.67 -0.05,-15.13 -0.08,-22.32 l -0.01,-2.63 -2.61,0.01 c -33.68,0.17 -62.65,0.73 -82.86,1.24 -9.19,0.28 -16.97,0.52 -23.45,0.73 -5.37,0.23 -8.16,0.43 -7.95,0.65 0.23,0.22 3.43,0.43 9.13,0.66 6.63,0.2 14.61,0.44 24.05,0.72 20.36,0.51 48.51,1.08 81.08,1.24 l -2.62,-2.62 c -0.03,7.19 -0.06,14.65 -0.08,22.32 -0.01,3.85 -0.02,7.75 -0.02,11.69 l -0.01,5.94 v 3 1.5 0.76 0.37 0.2 0.09 0.04 0.03 0.01 c -0.6,0.59 5.16,-5.17 2.72,-2.73 -44.78,0 -85.27,0.31 -114.25,0.82 l 1.92,1.91 c -0.25,-13.79 -0.69,-25.06 -1.04,-33.07 -0.35,-7.99 -0.61,-12.62 -0.88,-12.88"
         style="fill:#17282f;fill-opacity:1;fill-rule:nonzero;stroke:none"
         transform="matrix(0.13333333,0,0,-0.13333333,0,530.37333)" />
      <path
         id="path43"
         d="m 2030.66,1872.88 c 0,0.67 12.33,1.29 32.78,1.76 20.45,0.48 49.02,0.81 81.47,0.93 l -2.7,-2.69 c -0.01,7.4 -0.02,15.1 -0.04,22.97 0.02,7.87 0.03,15.57 0.04,22.97 l 2.7,-2.69 c -32.46,0.12 -61.02,0.45 -81.47,0.93 -20.45,0.47 -32.78,1.09 -32.78,1.76 0,0.69 12.33,1.3 32.78,1.78 20.45,0.48 49.01,0.81 81.47,0.92 l 2.69,0.01 v -2.71 c 0.01,-7.4 0.03,-15.1 0.04,-22.97 -0.01,-7.87 -0.03,-15.57 -0.04,-22.97 v -2.71 l -2.69,0.01 c -32.45,0.11 -61.02,0.44 -81.47,0.92 -20.45,0.48 -32.78,1.1 -32.78,1.78"
         style="fill:#17282f;fill-opacity:1;fill-rule:nonzero;stroke:none"
         transform="matrix(0.13333333,0,0,-0.13333333,0,530.37333)" />
      <path
         id="path44"
         d="m 2246.47,2603.34 c -0.25,0.25 -0.5,5.23 -0.85,13.96 -0.33,8.74 -0.76,21.14 -1,36.45 l 1.84,-1.85 c -34.18,-0.54 -83.86,-0.88 -139.04,-0.88 -2.45,-2.44 3.31,3.33 2.72,2.73 v -0.01 -0.03 -0.05 -0.1 -0.21 -0.41 -0.83 -1.64 -3.27 -6.51 c -0.01,-4.31 -0.02,-8.58 -0.02,-12.8 -0.03,-8.42 -0.06,-16.63 -0.08,-24.55 l -2.63,2.63 c 39.61,-0.15 73.96,-0.72 98.76,-1.23 11.71,-0.3 21.47,-0.54 29.27,-0.74 6.92,-0.22 10.8,-0.44 11.03,-0.66 0.22,-0.22 -3.24,-0.44 -9.83,-0.67 -7.65,-0.2 -17.2,-0.44 -28.67,-0.74 -24.65,-0.51 -59.83,-1.07 -100.56,-1.23 l -2.63,-0.01 -0.01,2.65 c -0.02,7.92 -0.04,16.13 -0.07,24.55 -0.01,4.22 -0.01,8.49 -0.02,12.8 v 6.51 3.27 1.64 0.83 0.41 0.21 0.1 0.05 0.03 0.01 c -0.6,-0.59 5.18,5.18 2.74,2.73 55.18,0 104.86,-0.33 139.04,-0.88 l 1.88,-0.03 -0.03,-1.82 c -0.24,-16.16 -0.67,-28.96 -1,-37.56 -0.34,-8.62 -0.59,-13.1 -0.84,-12.85"
         style="fill:#17282f;fill-opacity:1;fill-rule:nonzero;stroke:none"
         transform="matrix(0.13333333,0,0,-0.13333333,0,530.37333)" />
      <path
         id="path45"
         d="m 2389.24,2016.56 c -0.26,0.25 -0.5,5.24 -0.84,13.96 -0.33,8.74 -0.77,21.15 -1.02,36.46 l 1.86,-1.85 c -34.19,-0.54 -83.87,-0.89 -139.05,-0.89 -2.45,-2.44 3.31,3.33 2.72,2.73 v -0.01 -0.03 -0.04 -0.11 -0.2 -0.42 -0.82 -1.64 l -0.01,-3.28 v -6.5 c 0,-4.32 -0.01,-8.59 -0.01,-12.81 -0.03,-8.42 -0.06,-16.63 -0.08,-24.55 l -2.63,2.63 c 39.61,-0.15 73.96,-0.71 98.76,-1.23 11.71,-0.29 21.46,-0.53 29.27,-0.73 6.92,-0.23 10.8,-0.45 11.03,-0.67 0.22,-0.22 -3.23,-0.44 -9.84,-0.67 -7.63,-0.19 -17.19,-0.44 -28.67,-0.73 -24.65,-0.52 -59.82,-1.08 -100.55,-1.23 l -2.63,-0.01 -0.01,2.64 c -0.02,7.92 -0.05,16.13 -0.07,24.55 0,4.22 -0.01,8.49 -0.02,12.81 v 6.5 3.28 1.64 0.82 0.42 0.2 0.11 0.04 0.03 0.01 c -0.6,-0.58 5.18,5.18 2.74,2.74 55.18,0 104.86,-0.34 139.05,-0.88 l 1.87,-0.03 -0.03,-1.82 c -0.24,-16.16 -0.67,-28.97 -1,-37.57 -0.34,-8.61 -0.6,-13.1 -0.84,-12.85"
         style="fill:#17282f;fill-opacity:1;fill-rule:nonzero;stroke:none"
         transform="matrix(0.13333333,0,0,-0.13333333,0,530.37333)" />
      <path
         id="path46"
         d="m 2207.97,1822.46 c -0.26,0.25 -0.5,5.23 -0.85,13.96 -0.33,8.74 -0.76,21.14 -1,36.46 l 1.84,-1.86 c -34.18,-0.54 -83.86,-0.88 -139.04,-0.88 -2.45,-2.44 3.31,3.33 2.72,2.73 v -0.01 -0.03 -0.05 -0.1 -0.21 -0.41 -0.82 -1.64 -3.29 -6.5 c -0.01,-4.32 -0.02,-8.58 -0.02,-12.8 -0.03,-8.42 -0.06,-16.63 -0.08,-24.55 l -2.63,2.63 c 39.61,-0.15 73.96,-0.71 98.76,-1.23 11.71,-0.29 21.47,-0.53 29.27,-0.74 6.92,-0.22 10.8,-0.44 11.03,-0.66 0.22,-0.23 -3.24,-0.44 -9.84,-0.67 -7.64,-0.19 -17.19,-0.44 -28.66,-0.74 -24.65,-0.51 -59.83,-1.07 -100.56,-1.23 l -2.63,-0.01 -0.01,2.65 c -0.02,7.92 -0.04,16.13 -0.07,24.55 -0.01,4.22 -0.01,8.48 -0.02,12.8 v 6.5 3.29 1.64 0.82 0.41 0.21 0.1 0.05 0.03 0.01 c -0.6,-0.59 5.18,5.18 2.74,2.74 55.18,0 104.86,-0.34 139.04,-0.89 l 1.88,-0.03 -0.03,-1.81 c -0.24,-16.17 -0.67,-28.98 -1,-37.57 -0.34,-8.62 -0.59,-13.1 -0.84,-12.85"
         style="fill:#17282f;fill-opacity:1;fill-rule:nonzero;stroke:none"
         transform="matrix(0.13333333,0,0,-0.13333333,0,530.37333)" />
      <path
         id="path47"
         d="m 2543.5,1561.96 c -0.25,0.24 -0.5,5.23 -0.84,13.95 -0.34,8.75 -0.77,21.15 -1.01,36.46 l 1.85,-1.85 c -34.18,-0.54 -83.86,-0.89 -139.05,-0.89 -1.38,-1.37 -0.15,-0.14 1.08,1.09 0.95,0.96 1.9,1.91 1.65,1.65 v -0.01 -0.03 -0.05 -0.11 -0.2 -0.41 -0.82 -1.65 -3.27 l -0.01,-6.51 c -0.01,-4.31 -0.01,-8.58 -0.02,-12.8 -0.02,-8.43 -0.05,-16.63 -0.07,-24.55 l -2.64,2.63 c 39.61,-0.15 73.97,-0.72 98.76,-1.24 11.71,-0.29 21.47,-0.53 29.27,-0.73 6.92,-0.23 10.81,-0.45 11.03,-0.66 0.22,-0.23 -3.24,-0.44 -9.83,-0.67 -7.65,-0.2 -17.2,-0.45 -28.67,-0.74 -24.65,-0.52 -59.82,-1.08 -100.56,-1.23 l -2.62,-0.01 -0.01,2.65 c -0.02,7.92 -0.05,16.12 -0.07,24.55 -0.01,4.22 -0.02,8.49 -0.02,12.8 l -0.01,6.51 v 3.27 1.65 0.82 0.41 0.2 0.11 0.05 0.03 0.01 c -0.26,-0.26 0.69,0.7 1.65,1.65 1.23,1.23 2.47,2.46 1.09,1.08 55.19,0 104.87,-0.34 139.05,-0.88 l 1.88,-0.02 -0.03,-1.83 c -0.24,-16.16 -0.67,-28.97 -1,-37.57 -0.35,-8.6 -0.6,-13.1 -0.85,-12.84"
         style="fill:#17282f;fill-opacity:1;fill-rule:nonzero;stroke:none"
         transform="matrix(0.13333333,0,0,-0.13333333,0,530.37333)" />
      <path
         id="path48"
         d="m 2631.14,1509.21 c -0.25,0.25 -0.5,5.24 -0.84,13.96 -0.33,8.74 -0.77,21.14 -1,36.46 l 1.84,-1.85 c -34.19,-0.55 -83.86,-0.89 -139.05,-0.89 -1.38,-1.37 -0.15,-0.14 1.08,1.09 0.95,0.95 1.9,1.91 1.64,1.65 v -0.02 -0.02 -0.05 -0.11 -0.21 -0.41 -0.82 -1.65 -3.27 l -0.01,-6.5 c 0,-4.32 -0.01,-8.59 -0.01,-12.8 -0.03,-8.43 -0.05,-16.64 -0.07,-24.56 l -2.64,2.63 c 39.62,-0.15 73.96,-0.71 98.76,-1.23 11.72,-0.29 21.46,-0.54 29.28,-0.73 6.92,-0.24 10.8,-0.45 11.02,-0.67 0.23,-0.22 -3.23,-0.43 -9.83,-0.67 -7.64,-0.19 -17.19,-0.44 -28.67,-0.73 -24.64,-0.52 -59.83,-1.09 -100.56,-1.23 l -2.63,-0.01 v 2.64 c -0.03,7.92 -0.05,16.13 -0.07,24.56 -0.02,4.21 -0.02,8.48 -0.03,12.8 v 6.5 3.27 1.65 0.82 0.41 0.21 0.11 0.05 0.02 0.02 c -0.26,-0.26 0.69,0.69 1.64,1.64 1.24,1.23 2.48,2.47 1.1,1.09 55.19,0 104.86,-0.34 139.05,-0.89 l 1.88,-0.02 -0.03,-1.82 c -0.25,-16.17 -0.68,-28.97 -1.01,-37.57 -0.34,-8.61 -0.59,-13.1 -0.84,-12.85"
         style="fill:#17282f;fill-opacity:1;fill-rule:nonzero;stroke:none"
         transform="matrix(0.13333333,0,0,-0.13333333,0,530.37333)" />
      <path
         id="path49"
         d="m 2526.28,2362.72 c -0.26,0.25 -0.5,5.24 -0.84,13.97 -0.33,8.74 -0.77,21.13 -1.01,36.45 l 1.85,-1.85 c -34.18,-0.55 -83.87,-0.88 -139.05,-0.88 -1.38,-1.38 -0.15,-0.15 1.08,1.08 0.95,0.95 1.9,1.91 1.64,1.65 v -0.02 -0.02 -0.06 -0.1 -0.21 -0.41 -0.82 -1.65 -3.27 -6.51 c -0.01,-4.31 -0.02,-8.58 -0.02,-12.8 -0.03,-8.42 -0.05,-16.62 -0.08,-24.55 l -2.63,2.63 c 39.62,-0.14 73.96,-0.71 98.76,-1.22 11.72,-0.3 21.47,-0.55 29.27,-0.74 6.93,-0.24 10.8,-0.45 11.03,-0.67 0.22,-0.22 -3.23,-0.43 -9.83,-0.67 -7.64,-0.19 -17.19,-0.44 -28.67,-0.73 -24.65,-0.52 -59.83,-1.08 -100.56,-1.23 l -2.62,-0.01 -0.01,2.64 c -0.03,7.93 -0.05,16.13 -0.08,24.55 -0.01,4.22 -0.01,8.49 -0.02,12.8 v 6.51 3.27 1.65 0.82 0.41 0.21 0.1 0.06 0.02 0.02 c -0.26,-0.26 0.69,0.69 1.65,1.64 1.23,1.23 2.46,2.47 1.09,1.09 55.18,0 104.87,-0.34 139.05,-0.88 l 1.87,-0.03 -0.02,-1.82 c -0.24,-16.17 -0.68,-28.97 -1.01,-37.57 -0.34,-8.61 -0.59,-13.1 -0.84,-12.85"
         style="fill:#17282f;fill-opacity:1;fill-rule:nonzero;stroke:none"
         transform="matrix(0.13333333,0,0,-0.13333333,0,530.37333)" />
      <path
         id="path50"
         d="m 2636.91,1319.2 v 0 l -0.94,27.68 v 0 l 0.94,-27.68 m -1.11,32.81 v 0 l -5.34,157.02 v 0 l 5.34,-157.02 m -5.35,157.35 v 0 l -1.65,48.38 v 0 l 1.65,-48.38 m -1.77,52.15 v 0 l -46.32,1362.25 -518.19,0.01 h 518.19 l 46.32,-1362.26"
         style="fill:#8c8f8f;fill-opacity:1;fill-rule:nonzero;stroke:none"
         transform="matrix(0.13333333,0,0,-0.13333333,0,530.37333)" />
      <path
         id="path51"
         d="m 2635.97,1346.88 -0.17,5.13 v 0 l 0.17,-5.13 v 0"
         style="fill:#0c1418;fill-opacity:1;fill-rule:nonzero;stroke:none"
         transform="matrix(0.13333333,0,0,-0.13333333,0,530.37333)" />
      <path
         id="path52"
         d="M 2636.91,1319.2 H 2449.1 l -1.43,82 186.48,-0.76 -3.69,108.59 v 0 l 5.34,-157.02 0.17,-5.13 0.94,-27.69 m -6.46,190.17 v 0 l -1.65,48.38 v 0 l 1.65,-48.38 m -1.77,52.15 h -0.01 l -7.05,207.48 h -180.39 l -6.72,384.01 h 174.05 l -12.47,366.84 h -168 l -5.65,323.08 -358.27,80.85 518.19,-0.01 46.32,-1362.25"
         style="fill:#9c2438;fill-opacity:1;fill-rule:nonzero;stroke:none"
         transform="matrix(0.13333333,0,0,-0.13333333,0,530.37333)" />
      <path
         id="path53"
         d="m 2608.56,2153 h -174.05 l -3.63,207.41 c 22.24,0.25 41.6,0.59 56.9,0.91 11.48,0.29 21.03,0.54 28.67,0.73 6.6,0.24 10.05,0.45 9.83,0.67 -0.23,0.22 -4.1,0.43 -11.03,0.67 -7.8,0.19 -17.55,0.44 -29.27,0.74 -15.15,0.31 -33.87,0.64 -55.18,0.89 l -0.79,45.46 c 36.89,0.12 69.6,0.4 94.45,0.78 0.24,-14.45 0.66,-26.19 0.98,-34.57 0.34,-8.73 0.58,-13.72 0.84,-13.97 0.01,-0.01 0.01,-0.01 0.02,-0.01 0.25,0 0.49,4.48 0.82,12.86 0.33,8.6 0.77,21.4 1.01,37.57 l 0.02,1.82 -1.87,0.03 c -25.09,0.39 -58.53,0.68 -96.37,0.81 l -1.82,104.04 h 168 L 2608.56,2153"
         style="fill:#974857;fill-opacity:1;fill-rule:nonzero;stroke:none"
         transform="matrix(0.13333333,0,0,-0.13333333,0,530.37333)" />
      <path
         id="path54"
         d="m 2634.15,1400.44 -186.48,0.76 -2.78,158.41 c 16.75,0.18 31.94,0.41 45.08,0.65 -0.39,-0.4 -0.67,-0.68 -0.67,-0.68 0,0 0.02,0.02 0.05,0.05 v -0.02 -0.02 -0.05 -0.11 -0.21 -0.41 -0.82 -1.65 -3.27 -6.5 c 0.01,-4.32 0.01,-8.59 0.03,-12.8 0.02,-8.43 0.04,-16.64 0.07,-24.56 v -2.64 l 2.63,0.01 c 40.73,0.14 75.92,0.71 100.56,1.23 11.48,0.29 21.03,0.54 28.67,0.73 4.73,0.17 7.84,0.33 9.15,0.49 l 3.69,-108.59 m -3.7,108.92 c -1.42,0.17 -4.96,0.34 -10.33,0.52 -7.82,0.19 -17.56,0.44 -29.28,0.73 -24.24,0.51 -57.61,1.06 -96.12,1.22 0.02,7.11 0.05,14.43 0.07,21.94 0,4.21 0.01,8.48 0.01,12.8 l 0.01,6.5 v 3.27 0.55 c 52.86,0.01 100.47,0.34 133.99,0.85 l 1.65,-48.38 m -1.78,52.15 c -22.78,0.35 -52.05,0.61 -85.04,0.75 0.21,1.14 0.43,5.44 0.72,12.54 0.33,8.6 0.76,21.41 1,37.57 l 0.03,1.83 -1.88,0.02 c -25.8,0.41 -60.42,0.7 -99.58,0.82 l -2.69,153.95 h 180.39 l 7.05,-207.48 m -85.26,0.75 c -0.88,0 -1.77,0 -2.65,0.01 -1.87,0.11 -4.67,0.23 -8.29,0.35 -7.8,0.2 -17.56,0.44 -29.27,0.73 -15.9,0.34 -35.75,0.69 -58.39,0.94 l -0.79,45.4 c 38.2,0.12 72.09,0.41 97.66,0.8 0.25,-14.45 0.66,-26.19 0.98,-34.58 0.3,-7.66 0.53,-12.44 0.75,-13.65"
         style="fill:#974857;fill-opacity:1;fill-rule:nonzero;stroke:none"
         transform="matrix(0.13333333,0,0,-0.13333333,0,530.37333)" />
      <path
         id="path55"
         d="m 2444.89,1559.61 -0.08,4.68 c 22.64,-0.25 42.49,-0.6 58.39,-0.94 11.71,-0.29 21.47,-0.53 29.27,-0.73 3.62,-0.12 6.42,-0.24 8.29,-0.35 -15.53,0.06 -31.84,0.09 -48.67,0.09 0.43,0.43 0.6,0.61 0.6,0.61 0,0 -0.85,-0.85 -1.7,-1.7 -0.36,-0.36 -0.72,-0.72 -1.02,-1.01 -13.14,-0.24 -28.33,-0.47 -45.08,-0.65 m 98.74,2.65 c -0.07,0 -0.14,0 -0.22,0 -0.22,1.21 -0.45,5.99 -0.75,13.65 -0.32,8.39 -0.73,20.13 -0.98,34.58 -25.57,-0.39 -59.46,-0.68 -97.66,-0.8 l -0.1,5.35 c 39.16,-0.12 73.78,-0.41 99.58,-0.82 l 1.88,-0.02 -0.03,-1.83 c -0.24,-16.16 -0.67,-28.97 -1,-37.57 -0.29,-7.1 -0.51,-11.4 -0.72,-12.54"
         style="fill:#0c1418;fill-opacity:1;fill-rule:nonzero;stroke:none"
         transform="matrix(0.13333333,0,0,-0.13333333,0,530.37333)" />
      <path
         id="path56"
         d="m 2489.45,1506.57 v 2.64 c -0.03,7.92 -0.05,16.13 -0.07,24.56 -0.02,4.21 -0.02,8.48 -0.03,12.8 v 6.5 3.27 1.65 0.82 0.41 0.21 0.11 0.05 0.02 0.02 c -0.03,-0.03 -0.05,-0.05 -0.05,-0.05 0,0 0.28,0.28 0.67,0.68 0.3,0.29 0.66,0.65 1.02,1.01 0.85,0.85 1.7,1.7 1.7,1.7 0,0 -0.17,-0.18 -0.6,-0.61 16.83,0 33.14,-0.03 48.67,-0.09 0.88,-0.01 1.77,-0.01 2.65,-0.01 0.08,0 0.15,0 0.22,0 32.99,-0.14 62.26,-0.4 85.04,-0.75 h 0.01 v 0 l 0.12,-3.77 v 0 0 c -33.52,-0.51 -81.13,-0.84 -133.99,-0.85 v -0.55 -3.27 l -0.01,-6.5 c 0,-4.32 -0.01,-8.59 -0.01,-12.8 -0.02,-7.51 -0.05,-14.83 -0.07,-21.94 38.51,-0.16 71.88,-0.71 96.12,-1.22 11.72,-0.29 21.46,-0.54 29.28,-0.73 5.37,-0.18 8.91,-0.35 10.33,-0.52 v 0 0 l 0.01,-0.33 v 0 0 c -1.31,-0.16 -4.42,-0.32 -9.15,-0.49 -7.64,-0.19 -17.19,-0.44 -28.67,-0.73 -24.64,-0.52 -59.83,-1.09 -100.56,-1.23 l -2.63,-0.01"
         style="fill:#0c1418;fill-opacity:1;fill-rule:nonzero;stroke:none"
         transform="matrix(0.13333333,0,0,-0.13333333,0,530.37333)" />
      <path
         id="path57"
         d="m 2430.88,2360.41 -0.08,4.61 c 21.31,-0.25 40.03,-0.58 55.18,-0.89 11.72,-0.3 21.47,-0.55 29.27,-0.74 6.93,-0.24 10.8,-0.45 11.03,-0.67 0.22,-0.22 -3.23,-0.43 -9.83,-0.67 -7.64,-0.19 -17.19,-0.44 -28.67,-0.73 -15.3,-0.32 -34.66,-0.66 -56.9,-0.91 m 95.42,2.3 c -0.01,0 -0.01,0 -0.02,0.01 -0.26,0.25 -0.5,5.24 -0.84,13.97 -0.32,8.38 -0.74,20.12 -0.98,34.57 -24.85,-0.38 -57.56,-0.66 -94.45,-0.78 l -0.1,5.32 c 37.84,-0.13 71.28,-0.42 96.37,-0.81 l 1.87,-0.03 -0.02,-1.82 c -0.24,-16.17 -0.68,-28.97 -1.01,-37.57 -0.33,-8.38 -0.57,-12.86 -0.82,-12.86"
         style="fill:#0c1418;fill-opacity:1;fill-rule:nonzero;stroke:none"
         transform="matrix(0.13333333,0,0,-0.13333333,0,530.37333)" />
      <path
         id="path58"
         d="m 1810.28,1106.81 c 0,-1.51 -119.78,-2.73 -267.5,-2.73 -147.78,0 -267.53,1.22 -267.53,2.73 0,1.51 119.75,2.73 267.53,2.73 147.72,0 267.5,-1.22 267.5,-2.73"
         style="fill:#17282f;fill-opacity:1;fill-rule:nonzero;stroke:none"
         transform="matrix(0.13333333,0,0,-0.13333333,0,530.37333)" />
      <path
         id="path59"
         d="m 2917.34,1320.32 c 0.06,-0.37 -6.03,-1.65 -17.1,-3.65 -12,-2.05 -27.81,-4.73 -46.91,-7.97 -39.66,-6.49 -94.49,-15.08 -155.11,-24.23 -8,-1.2 -15.9,-2.38 -23.63,-3.55 l 1.59,0.83 c -23.38,-24.98 -45.14,-48.24 -64.1,-68.53 l -0.57,-0.6 -0.78,-0.11 c -30.39,-4.31 -55.95,-7.93 -74.96,-10.63 -8.42,-1.04 -15.37,-1.91 -20.99,-2.61 -4.85,-0.52 -7.45,-0.69 -7.49,-0.45 -0.03,0.25 2.49,0.87 7.28,1.84 5.57,1.03 12.45,2.32 20.79,3.87 18.94,3.18 44.4,7.47 74.66,12.56 l -1.34,-0.72 c 18.8,20.45 40.35,43.89 63.52,69.08 l 0.63,0.7 0.96,0.14 c 7.72,1.18 15.61,2.37 23.61,3.59 60.62,9.15 115.55,17.13 155.35,22.65 19.21,2.53 35.11,4.63 47.18,6.24 11.16,1.35 17.35,1.92 17.41,1.55"
         style="fill:#17282f;fill-opacity:1;fill-rule:nonzero;stroke:none"
         transform="matrix(0.13333333,0,0,-0.13333333,0,530.37333)" />
      <path
         id="path60"
         d="m 1487.6,1231.48 c 14.12,7.29 30.74,8.23 46.41,5.64 8.42,-1.39 17.2,-3.91 22.93,-10.24 5.73,-6.32 6.81,-17.45 0.24,-22.88 -3.92,-3.24 -9.38,-3.73 -14.46,-3.67 -12.27,0.14 -25.88,2.3 -35.68,-5.08 -5.6,-4.21 -9.32,-11.21 -16.01,-13.28 -6.54,-2.03 -13.92,1.82 -17.39,7.73 -3.46,5.9 -3.58,13.28 -1.96,19.93 0,0 1.7,14.52 15.92,21.85"
         style="fill:#f03d5f;fill-opacity:1;fill-rule:nonzero;stroke:none"
         transform="matrix(0.13333333,0,0,-0.13333333,0,530.37333)" />
      <path
         id="path61"
         d="m 1455.26,1293.91 c 8.63,-12.32 25.41,-8.24 33.19,-0.71 7.78,7.52 11.06,18.43 14.05,28.83 6.85,23.77 13.74,48.69 8.66,72.9 -1.53,7.23 -4.23,14.44 -9.31,19.81 -5.09,5.37 -12.91,8.57 -20.05,6.67 -8.47,-2.23 -13.72,-10.52 -17.52,-18.4 -11.17,-23.16 -17.09,-48.84 -17.18,-74.57 -0.04,-12.01 1.38,-24.61 8.16,-34.53"
         style="fill:#f03d5f;fill-opacity:1;fill-rule:nonzero;stroke:none"
         transform="matrix(0.13333333,0,0,-0.13333333,0,530.37333)" />
      <path
         id="path62"
         d="m 1431.55,1276.23 c 9.38,11.12 11.15,27.34 6.98,41.28 -4.17,13.93 -13.59,25.79 -24.45,35.46 -12.73,11.35 -27.7,20.19 -43.78,25.84 -6.34,2.23 -13.02,3.99 -19.69,3.34 -6.69,-0.63 -13.41,-4.05 -16.53,-9.99 -4.61,-8.79 -0.19,-19.45 4.59,-28.14 8.41,-15.32 18.04,-29.98 28.76,-43.8 8.61,-11.11 18.49,-22.07 31.63,-27.1 13.13,-5.02 26.78,-4.42 33.74,4.68"
         style="fill:#f03d5f;fill-opacity:1;fill-rule:nonzero;stroke:none"
         transform="matrix(0.13333333,0,0,-0.13333333,0,530.37333)" />
      <path
         id="path63"
         d="m 1454.67,1107.94 c 0.16,-0.01 0.43,1.99 0.78,5.6 0.4,4.07 0.9,9.2 1.49,15.28 0.71,6.44 1.65,14.1 3.44,22.44 1.78,8.31 4.57,17.32 8.15,26.46 3.71,9.08 8.23,17.34 13.52,23.95 5.24,6.64 11.35,11.43 17.09,14.2 5.71,2.83 10.84,3.98 14.38,4.49 3.58,0.36 5.58,0.64 5.58,0.81 0.01,0.15 -2,0.18 -5.67,0.09 -3.64,-0.25 -8.98,-1.18 -15.01,-3.91 -6.04,-2.69 -12.52,-7.56 -18.02,-14.34 -5.55,-6.73 -10.24,-15.17 -14.01,-24.42 -3.65,-9.31 -6.4,-18.41 -8.09,-26.9 -1.7,-8.49 -2.48,-16.23 -2.99,-22.72 -0.48,-6.48 -0.67,-11.75 -0.75,-15.38 -0.09,-3.63 -0.04,-5.65 0.11,-5.65"
         style="fill:#17282f;fill-opacity:1;fill-rule:nonzero;stroke:none"
         transform="matrix(0.13333333,0,0,-0.13333333,0,530.37333)" />
      <path
         id="path64"
         d="m 1455.73,1119.7 c 0.08,0 0.12,0.9 0.14,2.6 0,1.95 -0.01,4.41 -0.02,7.43 -0.01,6.46 -0.01,15.79 0.34,27.32 0.57,23.05 2.55,47.87 6.39,82.86 3.63,32.89 8.5,71.17 13.65,96.06 1.1,5.67 2.21,10.75 3.26,15.22 0.99,4.47 1.84,8.33 2.66,11.44 0.71,2.94 1.29,5.32 1.74,7.23 0.38,1.66 0.53,2.54 0.46,2.56 -0.08,0.03 -0.39,-0.81 -0.91,-2.43 -0.56,-1.88 -1.28,-4.23 -2.16,-7.12 -0.95,-3.1 -1.93,-6.93 -3.05,-11.38 -1.17,-4.44 -2.4,-9.52 -3.6,-15.18 -5.09,-22.55 -10.48,-54.07 -14.35,-89.14 -3.84,-35.06 -5.57,-66.98 -5.72,-90.09 -0.15,-11.56 0.1,-20.91 0.4,-27.37 0.18,-3.02 0.33,-5.48 0.45,-7.43 0.13,-1.7 0.24,-2.59 0.32,-2.58"
         style="fill:#17282f;fill-opacity:1;fill-rule:nonzero;stroke:none"
         transform="matrix(0.13333333,0,0,-0.13333333,0,530.37333)" />
      <path
         id="path65"
         d="m 1455.88,1181.27 c 0.16,0 0.14,2.76 -0.06,7.76 -0.28,4.99 -0.97,12.21 -2.37,21.03 -1.49,8.82 -3.57,19.29 -6.84,30.66 -1.42,5.2 -4.75,17.65 -12.82,36.27 -10.64,25.22 -25.08,45.84 -37.64,58.61 -2.95,3.39 -6.23,5.84 -8.86,8.23 -1.36,1.16 -2.56,2.3 -3.78,3.21 -1.23,0.85 -2.38,1.64 -3.44,2.37 -4.13,2.82 -6.45,4.32 -6.54,4.18 -0.37,-0.51 9.27,-6.17 21.44,-19.11 12.11,-12.92 26.15,-33.4 36.69,-58.41 5.89,-13.56 9.99,-25.66 12.9,-35.94 3.35,-11.26 5.59,-21.62 7.28,-30.34 1.6,-8.75 2.53,-15.89 3.09,-20.83 0.46,-4.96 0.79,-7.7 0.95,-7.69"
         style="fill:#17282f;fill-opacity:1;fill-rule:nonzero;stroke:none"
         transform="matrix(0.13333333,0,0,-0.13333333,0,530.37333)" />
      <path
         id="path66"
         d="m 2122.01,2362.72 h -40.34 v 62.33 h 40.34 v -62.33"
         style="fill:#17282f;fill-opacity:1;fill-rule:nonzero;stroke:none"
         transform="matrix(0.13333333,0,0,-0.13333333,0,530.37333)" />
      <path
         id="path67"
         d="m 2122.01,2283.28 h -40.34 v 62.33 h 40.34 v -62.33"
         style="fill:#17282f;fill-opacity:1;fill-rule:nonzero;stroke:none"
         transform="matrix(0.13333333,0,0,-0.13333333,0,530.37333)" />
      <path
         id="path68"
         d="m 2812.12,1442.66 c 0.5,15.8 14.44,27.76 28.36,35.27 13.91,7.5 29.62,13.3 39.35,25.76 15.78,20.18 12.17,53.34 33.27,67.87 12.42,8.54 29.91,7.51 41.51,17.13 6.09,5.04 9.72,12.36 13.55,19.26 19.55,35.28 48.76,65.12 83.61,85.42 -7.96,-34.16 -25.33,-66.09 -49.68,-91.33 -9.79,-10.15 -20.93,-19.58 -26.92,-32.35 -9.71,-20.73 -4.13,-46.64 -15.68,-66.4 -13.22,-22.61 -45.38,-30.94 -54,-55.68 -7.3,-20.9 5.77,-44.93 -1.8,-65.73 -3.22,-8.87 -9.85,-16.02 -16.79,-22.42 -24.37,-22.49 -53.96,-34.25 -90.32,-22.98 l -45.22,11.49 60.76,94.69"
         style="fill:#f03d5f;fill-opacity:1;fill-rule:nonzero;stroke:none"
         transform="matrix(0.13333333,0,0,-0.13333333,0,530.37333)" />
      <path
         id="path69"
         d="m 2823.91,1332.14 c -8.66,0 -17.76,1.37 -27.33,4.34 l -41.01,10.42 -4.21,1.07 60.76,94.69 c 0.5,15.8 14.44,27.76 28.36,35.27 13.91,7.5 29.62,13.3 39.35,25.76 15.78,20.18 12.17,53.34 33.27,67.87 12.42,8.54 29.91,7.51 41.51,17.13 6.09,5.04 9.72,12.36 13.55,19.26 19.55,35.28 48.76,65.12 83.61,85.42 -7.96,-34.16 -25.33,-66.09 -49.68,-91.33 -9.79,-10.15 -20.93,-19.58 -26.92,-32.35 -9.71,-20.73 -4.13,-46.64 -15.68,-66.4 -13.22,-22.61 -45.38,-30.94 -54,-55.68 -1.71,-4.9 -2.3,-9.97 -2.3,-15.13 0,-11.52 2.94,-23.5 2.95,-35.01 0.01,-5.32 -0.62,-10.55 -2.45,-15.59 -3.22,-8.87 -9.85,-16.02 -16.79,-22.42 -17.95,-16.57 -38.75,-27.32 -62.99,-27.32"
         style="fill:#ba2c42;fill-opacity:1;fill-rule:nonzero;stroke:none"
         transform="matrix(0.13333333,0,0,-0.13333333,0,530.37333)" />
      <path
         id="path70"
         d="m 2741.95,1349.45 c 0,0 -4.6,0.09 -12.35,3.63 -7.55,3.57 -19.13,9.64 -28.86,22.95 -2.22,3.43 -4.27,7.47 -4.65,12.23 -0.36,4.71 0.69,9.37 1.75,14.16 2.44,9.47 5.15,19.65 1.82,30.47 -2.56,10.69 -8.86,22.08 -8.05,35.76 0.54,13.49 6.69,26.36 12.66,39.21 5.97,12.84 12.14,26.72 11.06,41.93 -0.71,15.21 -6.87,30.68 -7.22,48.15 -0.25,17.66 7.07,34.24 10.91,51.3 1.99,8.58 2.79,17.35 1.38,26.16 -1.3,8.86 -4.15,17.79 -5.66,27.39 -3.08,19.45 1.13,39.1 4.4,58.44 1.69,9.74 3.39,19.59 5.12,29.53 1.76,10.04 3.68,19.76 3.35,29.87 -0.03,10.09 -1.37,20.27 -2.63,30.68 -0.59,5.24 -1.29,10.5 -0.99,16.22 0.7,5.78 1.87,10.66 3.08,16.02 4.63,21.18 15.07,40.77 23.5,60.52 l 0.72,1.72 1.5,3.6 2.86,-2.62 c 17.1,-15.62 23.67,-38.58 25.4,-59.77 1.88,-21.59 -1.33,-42.62 -3.18,-62.89 -1.94,-20.28 -2.6,-40.44 2.53,-59.08 4.93,-18.38 15.57,-36.52 12.97,-56.92 -3.06,-20.25 -18.36,-33.79 -20.94,-50.73 -3.16,-16.96 3.76,-33.61 8.69,-49.45 5.38,-15.76 8.89,-33.02 4.9,-48.72 -3.36,-15.54 -9.7,-29.21 -12.54,-42.93 -3.04,-13.65 -1.92,-27.18 0.23,-39.69 2.16,-12.55 5.24,-24.27 7.44,-35.43 2.33,-11.05 3.72,-21.93 2.34,-31.75 -1.28,-9.77 -4,-18.41 -7.27,-25.76 -6.52,-14.82 -15.58,-24.19 -22.61,-28.86 -7.11,-4.7 -11.66,-5.34 -11.66,-5.34 -0.15,0.36 4.3,1.37 11.03,6.24 6.66,4.84 15.21,14.2 21.3,28.8 3.04,7.25 5.53,15.73 6.63,25.22 1.17,9.52 -0.29,19.79 -2.75,30.83 -2.31,11.03 -5.53,22.71 -7.87,35.45 -2.31,12.67 -3.65,26.75 -0.59,41.09 2.85,14.27 9.11,28.06 12.2,42.99 3.64,14.96 0.34,30.71 -5.07,46.45 -2.61,7.93 -5.52,16.01 -7.6,24.61 -2.09,8.54 -3.27,17.83 -1.53,27.11 3.2,18.93 18.41,32.7 20.68,50.54 2.4,18.06 -7.62,35.64 -13.01,54.87 -5.45,19.64 -4.74,40.52 -2.83,60.95 1.84,20.5 4.94,41.15 3.09,61.94 -1.69,20.52 -8.04,41.96 -23.66,56.2 l 4.38,0.99 -0.74,-1.76 c -8.68,-20.29 -18.75,-39.13 -23.26,-59.7 -1.15,-4.99 -2.39,-10.45 -2.95,-15.14 -0.27,-4.82 0.37,-10.03 0.94,-15.18 1.24,-10.33 2.61,-20.79 2.62,-31.29 0.32,-10.55 -1.74,-20.96 -3.49,-30.77 -1.75,-9.95 -3.47,-19.81 -5.19,-29.55 -3.37,-19.47 -7.42,-38.55 -4.56,-56.78 1.37,-9.09 4.2,-18.07 5.55,-27.45 1.49,-9.42 0.54,-19.1 -1.56,-27.92 -4.13,-17.71 -11.26,-33.83 -11.06,-50.21 0.14,-16.31 6.18,-31.89 6.89,-47.97 1.02,-16.4 -5.71,-31.06 -11.77,-43.79 -6.13,-12.85 -12.09,-25.22 -12.68,-37.74 -0.96,-12.51 4.92,-23.63 7.54,-34.85 1.41,-5.6 1.93,-11.44 1.15,-16.84 -0.73,-5.4 -2.24,-10.31 -3.4,-14.99 -1.13,-4.65 -2.19,-9.23 -1.92,-13.39 0.24,-4.14 2.03,-7.94 4.06,-11.22 9,-12.9 20.29,-19.33 27.55,-23.11 7.48,-3.82 11.96,-4.33 11.88,-4.63"
         style="fill:#17282f;fill-opacity:1;fill-rule:nonzero;stroke:none"
         transform="matrix(0.13333333,0,0,-0.13333333,0,530.37333)" />
      <path
         id="path71"
         d="m 2754.38,1918 c 0.56,-0.01 -0.28,-8.05 -0.28,-22.36 0.25,-3.56 0.29,-7.47 0.7,-11.81 0.57,-4.36 1.25,-9.11 1.69,-14.23 1,-10.24 1.62,-21.97 1.56,-34.92 -0.01,-12.96 -0.8,-27.13 -1.74,-42.24 -0.83,-15.17 -1.96,-31.13 1.67,-47.62 1.56,-8.31 3.56,-16.89 4.52,-26 1.03,-9.15 0.27,-18.62 -1.03,-27.85 -0.68,-4.59 -1.36,-9.22 -2.06,-13.89 -0.43,-4.67 -0.86,-9.39 -1.3,-14.14 -0.86,-9.49 -1.75,-19.13 -2.66,-28.87 -3.94,-78.51 -6.53,-149.74 -8.73,-201.27 -1.21,-25.18 -2.21,-45.83 -2.94,-61.01 -0.44,-6.7 -0.79,-12.18 -1.08,-16.58 -0.31,-3.79 -0.56,-5.77 -0.75,-5.76 -0.18,0 -0.3,2 -0.35,5.8 0.01,4.41 0.03,9.9 0.05,16.61 0.3,15.2 0.71,35.87 1.21,61.08 1.2,51.55 3.18,122.78 7.14,201.5 0.92,9.83 1.83,19.56 2.71,29.15 0.46,4.78 0.91,9.54 1.36,14.26 0.7,4.66 1.41,9.28 2.1,13.86 1.32,9.12 2.06,17.95 1.13,26.6 -0.85,8.66 -2.75,17.14 -4.27,25.6 -3.61,17.02 -2.28,33.83 -1.24,48.82 1.13,15.14 2.14,29.16 2.4,42 0.3,12.83 -0.04,24.45 -0.74,34.62 -0.3,5.09 -0.82,9.81 -1.23,14.16 -0.27,4.41 -0.17,8.54 -0.25,12.18 -0.06,7.3 1.12,12.78 1.42,16.58 0.47,3.77 0.81,5.74 0.99,5.73"
         style="fill:#17282f;fill-opacity:1;fill-rule:nonzero;stroke:none"
         transform="matrix(0.13333333,0,0,-0.13333333,0,530.37333)" />
      <path
         id="path72"
         d="m 2734.01,1351.62 c -24.16,25.9 -17.16,81.09 4.3,109.28 21.46,28.2 51.27,50.97 64.43,83.86 10.13,25.28 9.4,54.48 22.87,78.15 18.2,31.93 59.47,48.74 69.38,84.14 5.56,19.85 -0.27,41.76 6.4,61.29 8.17,23.93 32.41,37.74 50.18,55.75 27.19,27.56 39.64,65.89 56.37,100.8 16.74,34.91 42.18,70.11 79.94,78.65 -4.29,-32.53 -2.31,-56.25 -17.2,-97.68 -5.34,-14.88 -31.4,-38.75 -43.48,-71.25 -7.22,-19.42 -14.01,-39.01 -21.02,-58.51 -6.82,-18.99 -13.81,-38.29 -26.01,-54.35 -9.35,-12.3 -21.55,-22.4 -29.66,-35.55 -15.28,-24.75 -14.04,-56.74 -27.98,-82.26 -11.81,-21.61 -33.6,-36.83 -43.69,-59.3 -14.19,-31.57 -2.87,-71.97 -22.93,-100.18 -9.96,-14 -26.42,-22.77 -34.75,-37.78 -6.46,-11.66 -7.24,-25.77 -13.46,-37.56 -10.01,-19 -53.1,-23.44 -73.31,-16.19"
         style="fill:#f03d5f;fill-opacity:1;fill-rule:nonzero;stroke:none"
         transform="matrix(0.13333333,0,0,-0.13333333,0,530.37333)" />
      <path
         id="path73"
         d="m 3070.8,1974.99 c 0.18,-0.09 -0.71,-2.41 -2.57,-6.75 -1.91,-4.36 -4.5,-10.73 -8.47,-18.91 -4.12,-8.21 -11.31,-16.64 -18.17,-27.26 -7.06,-10.56 -14.61,-22.88 -22.21,-36.95 -7.65,-14.02 -15.23,-29.8 -23.34,-46.84 -8.14,-16.85 -17.01,-35.74 -31.35,-51.85 -6.84,-8.18 -14.13,-16.19 -20.43,-25.07 -6.35,-8.81 -11.04,-18.89 -15.22,-29.56 -2.08,-5.38 -4.17,-10.8 -6.28,-16.27 -2.41,-5.37 -4.85,-10.78 -7.31,-16.23 -4.92,-10.9 -9.92,-21.95 -14.98,-33.14 -22.07,-43.74 -43.6,-85.14 -63.2,-122.76 -19.84,-37.3 -37.75,-70.98 -52.91,-99.47 -15,-27.8 -27.25,-50.49 -36.08,-66.84 -4.15,-7.45 -7.49,-13.43 -10.06,-18.04 -2.35,-4.1 -3.66,-6.21 -3.84,-6.12 -0.16,0.08 0.83,2.37 2.87,6.63 2.34,4.73 5.38,10.88 9.15,18.52 8.45,16.54 20.18,39.51 34.55,67.65 14.85,28.64 32.41,62.5 51.86,100.02 19.32,37.8 40.49,79.25 62.74,122.79 5.03,11.09 10,22.06 14.9,32.87 2.44,5.41 4.87,10.77 7.28,16.1 2.13,5.46 4.24,10.89 6.33,16.27 4.26,10.77 9.24,21.4 15.95,30.6 6.59,9.21 14.03,17.26 20.83,25.29 14.1,15.65 22.72,33.69 31.13,50.59 8.27,16.92 16.11,32.72 24.03,46.74 7.87,14.03 15.72,26.33 23.06,36.78 7.21,10.61 14.61,18.81 18.83,26.57 3.86,7.57 6.96,13.66 9.35,18.36 2.17,4.19 3.39,6.35 3.56,6.28"
         style="fill:#17282f;fill-opacity:1;fill-rule:nonzero;stroke:none"
         transform="matrix(0.13333333,0,0,-0.13333333,0,530.37333)" />
      <path
         id="path74"
         d="m 2885.55,967.32 c 73.27,-20.871 151.31,-14.082 221.33,15.93 16.73,7.18 33.74,13.309 51.34,16.78 88.65,17.51 176.55,-34.569 266.92,-35.448 54.17,-0.551 106.56,17.297 160,26.559 -47.87,33.739 -106.94,74.839 -106.94,74.839 l -15.38,37.16 -132.9,40.54 -157.49,102.45 -98.94,13.73 -108.12,57.64 -328.46,56.61 h -635.13 l -177.87,-111.2 -383.58,-21.84 -164.25,-129.51 -241.41,-64.37 -106.506,-80.62 c 26.938,-2.289 53.906,-3.582 80.966,-2.531 137.14,5.281 269.13,66.531 406.22,60.201 147.84,-6.83 288.9,-91.951 435.55,-72.01 116.79,15.891 222.39,97.52 339.88,88.15 109.36,-8.72 202.84,-95.54 312.55,-95.732 64.66,-0.097 124.92,30.133 187.2,47.524 72.57,20.278 120.86,-3.723 195.02,-24.852"
         style="fill:#33535f;fill-opacity:1;fill-rule:nonzero;stroke:none"
         transform="matrix(0.13333333,0,0,-0.13333333,0,530.37333)" />
      <path
         id="path75"
         d="m 4035.2,1307.95 c 0,-1.22 -85.51,-2.2 -190.99,-2.2 -105.51,0 -191.01,0.98 -191.01,2.2 0,1.23 85.5,2.21 191.01,2.21 105.48,0 190.99,-0.98 190.99,-2.21"
         style="fill:#33535f;fill-opacity:1;fill-rule:nonzero;stroke:none"
         transform="matrix(0.13333333,0,0,-0.13333333,0,530.37333)" />
      <path
         id="path76"
         d="m 3976.15,1264.41 c 0,-1.22 -54.8,-2.21 -122.39,-2.21 -67.62,0 -122.4,0.99 -122.4,2.21 0,1.22 54.78,2.22 122.4,2.22 67.59,0 122.39,-1 122.39,-2.22"
         style="fill:#33535f;fill-opacity:1;fill-rule:nonzero;stroke:none"
         transform="matrix(0.13333333,0,0,-0.13333333,0,530.37333)" />
      <path
         id="path77"
         d="m 3876.42,1217.57 c 0,-1.22 -8.46,-2.21 -18.89,-2.21 -10.43,0 -18.89,0.99 -18.89,2.21 0,1.22 8.46,2.21 18.89,2.21 10.43,0 18.89,-0.99 18.89,-2.21"
         style="fill:#33535f;fill-opacity:1;fill-rule:nonzero;stroke:none"
         transform="matrix(0.13333333,0,0,-0.13333333,0,530.37333)" />
      <path
         id="path78"
         d="m 3774.54,1444.1 -53.55,-0.28 c 0.39,10.7 0.63,24.97 0.63,40.72 0,22.8 -0.5,42.61 -1.24,52.73 h 54.16 z m -100.23,93.17 h 43.82 c -0.74,-10.12 -1.25,-29.93 -1.25,-52.73 0,-15.76 0.25,-30.04 0.64,-40.73 l -42.62,-0.22 c 0.4,10.71 0.65,25.1 0.65,40.95 0,22.8 -0.5,42.61 -1.24,52.73 z m 270.19,-94.2 v 112.63 h -91.12 v 61.05 h -25.6 v -64.12 h -13.31 v 63.48 h -22.52 V 1555.7 H 3652.7 v -18.43 h 19.36 c -0.74,-10.12 -1.25,-29.93 -1.25,-52.73 0,-15.86 0.24,-30.25 0.64,-40.97 l -97.58,-0.5 86,-95.21 h 354.26 l 67.57,95.21 h -137.2"
         style="fill:#33535f;fill-opacity:1;fill-rule:nonzero;stroke:none"
         transform="matrix(0.13333333,0,0,-0.13333333,0,530.37333)" />
    </g>
  </g>
</svg>
